<svg xmlns="http://www.w3.org/2000/svg" viewBox="0 0 208.23 199.61"><defs><style>.cls-1{fill:#97db4f;}.cls-2{font-size:29.53px;font-family:Archia-Regular, Archia;}.cls-3{letter-spacing:-0.01em;}</style></defs><g id="Key"><g id="KEY-2" data-name="KEY"><path class="cls-1" d="M71.64,36.81l.09,16.37v2.35a5,5,0,0,0,10,0l-.09-16.37V36.81a5,5,0,1,0-10,0Z" transform="translate(-51.15 -31.76)"/><path class="cls-1" d="M107.71,76.88l6.62,6.62.94.94a5.21,5.21,0,0,0,3.54,1.46,5,5,0,0,0,5-5,5.19,5.19,0,0,0-1.47-3.53l-6.61-6.62-1-.94a5,5,0,0,0-7.07,0,5,5,0,0,0-1.46,3.53,5.25,5.25,0,0,0,1.46,3.54Z" transform="translate(-51.15 -31.76)"/><path class="cls-1" d="M187.88,40.41,194.5,47l.94.94A5.14,5.14,0,0,0,199,49.43,5.07,5.07,0,0,0,202.51,48,5,5,0,0,0,204,44.43a5.19,5.19,0,0,0-1.47-3.53l-6.62-6.62-.94-.94a5.15,5.15,0,0,0-3.53-1.47,5.09,5.09,0,0,0-3.54,1.47,5,5,0,0,0-1.46,3.53,5.16,5.16,0,0,0,1.46,3.54Z" transform="translate(-51.15 -31.76)"/><path class="cls-1" d="M154,41.89h18.7a5,5,0,0,0,0-10H154a5,5,0,0,0,0,10Z" transform="translate(-51.15 -31.76)"/><path class="cls-1" d="M154,86.06h18.7a5,5,0,0,0,0-10H154a5,5,0,0,0,0,10Z" transform="translate(-51.15 -31.76)"/><path class="cls-1" d="M154,63.91h11.66a5,5,0,0,0,0-10H154a5.15,5.15,0,0,0-3.53,1.47A5,5,0,0,0,154,63.91Z" transform="translate(-51.15 -31.76)"/><path class="cls-1" d="M117.22,33.32l-14.9,14.9L78.6,71.94l-5.42,5.42a5,5,0,1,0,7.07,7.07l14.9-14.89,23.72-23.72,5.42-5.43a5,5,0,0,0-7.07-7.07Z" transform="translate(-51.15 -31.76)"/><path class="cls-1" d="M220.21,33.36,202.46,51.11l-2.53,2.53A5,5,0,0,0,207,60.71L224.75,43l2.53-2.53a5,5,0,1,0-7.07-7.07Z" transform="translate(-51.15 -31.76)"/><path class="cls-1" d="M136.1,36.76v44.3a5,5,0,0,0,10,0V36.76a5,5,0,1,0-10,0Z" transform="translate(-51.15 -31.76)"/><path class="cls-1" d="M198.47,57.17V81.06a5,5,0,0,0,10,0V57.17a5,5,0,1,0-10,0Z" transform="translate(-51.15 -31.76)"/></g></g><g id="Code"><path class="cls-1" d="M113.17,168.8,97.11,192.72l-2.32,3.45A5,5,0,0,0,96.58,203a5.12,5.12,0,0,0,6.84-1.79l16.07-23.92,2.32-3.45A5,5,0,0,0,120,167a5.13,5.13,0,0,0-6.84,1.8Z" transform="translate(-51.15 -31.76)"/><path class="cls-1" d="M164.34,168.88l-12.51,18.63L132,217.07l-4.57,6.81a5,5,0,0,0,1.8,6.84,5.12,5.12,0,0,0,6.84-1.79l12.51-18.63,19.86-29.57,4.57-6.8a5,5,0,0,0-1.8-6.84,5.12,5.12,0,0,0-6.84,1.79Z" transform="translate(-51.15 -31.76)"/><path class="cls-1" d="M121.81,223.76l-15.92-23.7-2.23-3.33c-1.46-2.17-4.48-3.32-6.84-1.79-2.16,1.39-3.36,4.51-1.8,6.84l15.92,23.7,2.24,3.33c1.45,2.17,4.47,3.32,6.84,1.79,2.16-1.39,3.35-4.52,1.79-6.84Z" transform="translate(-51.15 -31.76)"/><path class="cls-1" d="M178.19,173.85l16.07,23.92,2.32,3.45c1.45,2.17,4.47,3.32,6.84,1.79,2.16-1.39,3.35-4.51,1.79-6.84l-16.06-23.92-2.32-3.45c-1.46-2.17-4.48-3.32-6.84-1.79-2.16,1.39-3.36,4.52-1.8,6.84Z" transform="translate(-51.15 -31.76)"/><path class="cls-1" d="M186.82,228.81l15.92-23.7,2.24-3.33a5,5,0,0,0-1.8-6.84,5.12,5.12,0,0,0-6.84,1.79l-15.92,23.7-2.23,3.33a5,5,0,0,0,1.79,6.85,5.13,5.13,0,0,0,6.84-1.8Z" transform="translate(-51.15 -31.76)"/></g><g id="Dev_Design" data-name="Dev&amp;Design"><text class="cls-2" transform="translate(0 106.62) scale(1.07 1)">D<tspan class="cls-3" x="21.71" y="0">e</tspan><tspan x="39.1" y="0">v &amp; Design</tspan></text></g></svg>